<svg width="52" height="51" viewBox="0 0 52 51" fill="none" xmlns="http://www.w3.org/2000/svg">
<g clip-path="url(#clip0_105_13)">
<path d="M13.53 33.03L12.41 42.08C12.38 42.35 12.09 42.34 12.07 42.08L11.43 35.17C11.4 34.87 11.08 34.9 11.08 35.2V49.73C11.08 50.34 11.6 50.66 11.93 50.25L20.96 38.75C21.25 38.38 21.67 38.31 22.02 38.56L27.7 42.66C28.08 42.93 28.54 42.8 28.81 42.34L51.42 3.63C51.87 2.87 51.21 1.82 50.6 2.32L13.95 32.19C13.73 32.37 13.58 32.68 13.53 33.03Z" fill="currentColor"/>
<path d="M47.03 1.83001L12.33 28.68C12.13 28.84 11.88 28.85 11.67 28.7L0.390008 20.9C-0.179992 20.51 -0.109992 19.35 0.500008 19.1L46.48 0.050005C47.29 -0.279995 47.76 1.27 47.02 1.83001H47.03Z" fill="currentColor"/>
</g>
<defs>
<clipPath id="clip0_105_13">
<rect width="51.56" height="50.43" fill="currentColor"/>
</clipPath>
</defs>
</svg>
