<svg width="26" height="26" viewBox="0 0 26 26" fill="none" xmlns="http://www.w3.org/2000/svg">
<path d="M12.67 0C10.1641 0 7.7145 0.743082 5.63093 2.13528C3.54736 3.52748 1.92341 5.50626 0.964448 7.8214C0.00548589 10.1365 -0.245422 12.6841 0.243452 15.1418C0.732327 17.5995 1.93903 19.8571 3.71096 21.629C5.48289 23.401 7.74047 24.6077 10.1982 25.0965C12.6559 25.5854 15.2035 25.3345 17.5186 24.3756C19.8337 23.4166 21.8125 21.7926 23.2047 19.7091C24.5969 17.6255 25.34 15.1759 25.34 12.67C25.34 9.30971 24.0051 6.08704 21.629 3.71096C19.253 1.33487 16.0303 0 12.67 0V0ZM15.87 3.3C15.9792 3.2539 16.0981 3.23548 16.2161 3.24636C16.3342 3.25725 16.4477 3.29711 16.5466 3.3624C16.6455 3.4277 16.7268 3.5164 16.7832 3.62065C16.8397 3.7249 16.8695 3.84147 16.87 3.96V7C16.8713 7.09408 16.8539 7.18748 16.8189 7.27478C16.7838 7.36208 16.7317 7.44153 16.6656 7.50852C16.5996 7.57552 16.5208 7.62871 16.434 7.66501C16.3472 7.70132 16.2541 7.72001 16.16 7.72H5.69L15.87 3.3ZM20.71 19.68C20.7074 19.9276 20.6072 20.1641 20.4312 20.3382C20.2552 20.5124 20.0176 20.61 19.77 20.61H6.14C5.89335 20.61 5.6568 20.512 5.48239 20.3376C5.30798 20.1632 5.21 19.9267 5.21 19.68V10C5.21 9.75335 5.30798 9.5168 5.48239 9.34239C5.6568 9.16798 5.89335 9.07 6.14 9.07H19.77C19.893 9.06868 20.015 9.09176 20.129 9.1379C20.243 9.18405 20.3467 9.25234 20.4341 9.33883C20.5215 9.42532 20.5909 9.52829 20.6383 9.64178C20.6856 9.75527 20.71 9.87702 20.71 10V19.68Z" fill="currentColor"/>
</svg>
