<svg width="26" height="26" viewBox="0 0 26 26" fill="none" xmlns="http://www.w3.org/2000/svg">
<path d="M12.67 0C10.1641 0 7.7145 0.743082 5.63093 2.13528C3.54736 3.52748 1.92341 5.50626 0.964448 7.8214C0.00548589 10.1365 -0.245422 12.6841 0.243452 15.1418C0.732327 17.5995 1.93903 19.8571 3.71096 21.629C5.48289 23.401 7.74047 24.6077 10.1982 25.0965C12.6559 25.5854 15.2035 25.3345 17.5186 24.3756C19.8337 23.4166 21.8125 21.7926 23.2047 19.7091C24.5969 17.6255 25.34 15.1759 25.34 12.67C25.34 9.30971 24.0051 6.08704 21.629 3.71096C19.253 1.33487 16.0303 0 12.67 0V0ZM20.09 9.48C20.09 9.63 20.09 9.79 20.09 9.96C20.0993 11.352 19.832 12.7319 19.3036 14.0198C18.7752 15.3076 17.9962 16.4776 17.0119 17.4619C16.0276 18.4462 14.8576 19.2252 13.5698 19.7536C12.2819 20.282 10.902 20.5493 9.51 20.54C7.49393 20.5418 5.52071 19.9582 3.83 18.86C4.12519 18.8969 4.42254 18.9136 4.72 18.91C6.39469 18.9129 8.02177 18.3529 9.34 17.32C8.56451 17.3066 7.8127 17.0506 7.19028 16.5878C6.56785 16.125 6.10612 15.4788 5.87 14.74C6.10013 14.7885 6.33483 14.812 6.57 14.81C6.90754 14.8098 7.24363 14.7661 7.57 14.68C6.72546 14.5115 5.96525 14.0559 5.41842 13.3905C4.87158 12.7252 4.57182 11.8912 4.57 11.03C5.08409 11.3194 5.66037 11.4806 6.25 11.5C5.74097 11.1591 5.32402 10.6978 5.03617 10.157C4.74833 9.61616 4.5985 9.01263 4.6 8.4C4.59664 7.74635 4.76935 7.10386 5.1 6.54C6.03215 7.68904 7.1962 8.62852 8.51612 9.2971C9.83604 9.96568 11.2821 10.3483 12.76 10.42C12.7011 10.1639 12.6676 9.90265 12.66 9.64C12.6412 8.88669 12.8516 8.14544 13.2634 7.51435C13.6752 6.88327 14.2689 6.39212 14.966 6.10592C15.663 5.81972 16.4306 5.75196 17.167 5.91162C17.9035 6.07127 18.574 6.45081 19.09 7C19.9211 6.83284 20.7186 6.52869 21.45 6.1C21.1687 6.96146 20.5865 7.69276 19.81 8.16C20.5657 8.06373 21.3034 7.85825 22 7.55C21.4817 8.30059 20.8352 8.95392 20.09 9.48Z" fill="currentColor"/>
</svg>
