<svg width="26" height="26" viewBox="0 0 26 26" fill="none" xmlns="http://www.w3.org/2000/svg">
<path fill-rule="evenodd" clip-rule="evenodd" d="M25.68 11.22C26.0291 13.8896 25.5335 16.6015 24.2627 18.975C22.992 21.3486 21.01 23.2647 18.5948 24.4544C16.1796 25.6441 13.4525 26.0477 10.7963 25.6086C8.14002 25.1694 5.68794 23.9096 3.78419 22.0058C1.88044 20.1021 0.620578 17.65 0.181427 14.9937C-0.257724 12.3375 0.145879 9.61039 1.33559 7.1952C2.5253 4.78002 4.4414 2.79798 6.81497 1.52726C9.18853 0.256545 11.9004 -0.239062 14.57 0.11C17.3874 0.478394 20.0042 1.76741 22.0134 3.7766C24.0226 5.78579 25.3116 8.40256 25.68 11.22ZM11.87 2.85C10.7782 3.10187 9.80608 3.72103 9.11618 4.60388C8.42628 5.48673 8.06049 6.57973 8.08 7.7V10.44C8.0616 11.5829 8.44337 12.6963 9.15923 13.5875C9.87508 14.4787 10.88 15.0915 12 15.32C12.6344 15.4261 13.2835 15.4057 13.91 15.26C13.9567 15.249 13.9994 15.2253 14.0334 15.1915C14.0674 15.1578 14.0915 15.1153 14.1028 15.0687C14.1142 15.0221 14.1125 14.9733 14.0979 14.9277C14.0833 14.882 14.0563 14.8413 14.02 14.81L11.27 12.18C11.0521 11.968 10.8789 11.7146 10.7604 11.4347C10.6419 11.1548 10.5805 10.854 10.58 10.55V7.67C10.5698 7.18224 10.7142 6.70377 10.9927 6.30316C11.2711 5.90256 11.6693 5.6004 12.13 5.44C12.4732 5.32807 12.838 5.29887 13.1946 5.35478C13.5513 5.41068 13.8896 5.5501 14.1821 5.76167C14.4746 5.97324 14.713 6.25097 14.8777 6.57218C15.0424 6.8934 15.1289 7.24901 15.13 7.61V8.61C15.13 8.70017 15.1658 8.78665 15.2296 8.85042C15.2933 8.91418 15.3798 8.95 15.47 8.95H17.28C17.3702 8.95 17.4567 8.91418 17.5204 8.85042C17.5842 8.78665 17.62 8.70017 17.62 8.61V7.52C17.6203 6.81029 17.4621 6.10946 17.1572 5.4686C16.8522 4.82775 16.4081 4.26302 15.8572 3.81559C15.3063 3.36816 14.6625 3.0493 13.9727 2.88225C13.2829 2.71521 12.5646 2.70419 11.87 2.85ZM17.62 18C17.6203 18.7097 17.4621 19.4105 17.1572 20.0514C16.8522 20.6923 16.4081 21.257 15.8572 21.7044C15.3063 22.1518 14.6625 22.4707 13.9727 22.6377C13.2829 22.8048 12.5646 22.8158 11.87 22.67C10.7782 22.4181 9.80608 21.799 9.11618 20.9161C8.42628 20.0333 8.06049 18.9403 8.08 17.82V16.93C8.08 16.884 8.08905 16.8385 8.10664 16.7961C8.12423 16.7536 8.15001 16.715 8.18251 16.6825C8.21501 16.65 8.2536 16.6242 8.29606 16.6066C8.33853 16.5891 8.38404 16.58 8.43 16.58H10.23C10.3211 16.5826 10.4076 16.6206 10.471 16.686C10.5345 16.7513 10.57 16.8389 10.57 16.93V17.85C10.5598 18.3378 10.7042 18.8162 10.9827 19.2168C11.2611 19.6174 11.6593 19.9196 12.12 20.08C12.4632 20.1919 12.828 20.2211 13.1846 20.1652C13.5413 20.1093 13.8796 19.9699 14.1721 19.7583C14.4646 19.5468 14.703 19.269 14.8677 18.9478C15.0324 18.6266 15.1189 18.271 15.12 17.91V15C15.1217 14.6957 15.0615 14.3942 14.9428 14.114C14.8242 13.8337 14.6497 13.5806 14.43 13.37L11.68 10.74C11.6437 10.7087 11.6167 10.668 11.6021 10.6223C11.5875 10.5767 11.5858 10.5279 11.5972 10.4813C11.6086 10.4347 11.6326 10.3922 11.6666 10.3585C11.7006 10.3247 11.7433 10.301 11.79 10.29C12.3995 10.1443 13.0323 10.1239 13.65 10.23C14.7857 10.4361 15.8113 11.0388 16.5439 11.9308C17.2766 12.8227 17.6685 13.9459 17.65 15.1V18H17.62Z" fill="currentColor"/>
</svg>
