<svg width="26" height="26" viewBox="0 0 26 26" fill="none" xmlns="http://www.w3.org/2000/svg">
<g clip-path="url(#clip0_101_2)">
<path d="M12.67 0C5.67 0 0 5.67 0 12.67C0 19.67 5.67 25.34 12.67 25.34C19.67 25.34 25.34 19.67 25.34 12.67C25.34 5.67 19.67 0 12.67 0ZM20.81 16.79C20.61 17.53 20.04 18.11 19.31 18.3C17.98 18.66 12.67 18.66 12.67 18.66C12.67 18.66 7.36 18.66 6.03 18.3C5.3 18.1 4.72 17.52 4.53 16.79C4.17 15.46 4.17 12.67 4.17 12.67C4.17 12.67 4.17 9.89 4.53 8.55C4.73 7.81 5.3 7.23 6.03 7.04C7.36 6.68 12.67 6.68 12.67 6.68C12.67 6.68 17.98 6.68 19.31 7.04C20.04 7.24 20.62 7.82 20.81 8.55C21.17 9.88 21.17 12.67 21.17 12.67C21.17 12.67 21.17 15.45 20.81 16.79Z" fill="#E18247"/>
<path d="M10.93 15.2L15.38 12.67L10.93 10.15V15.2Z" fill="#E18247"/>
</g>
<defs>
<clipPath id="clip0_101_2">
<rect width="25.34" height="25.34" fill="white"/>
</clipPath>
</defs>
</svg>
