<svg width="26" height="26" viewBox="0 0 26 26" fill="none" xmlns="http://www.w3.org/2000/svg">
<g clip-path="url(#clip0_101_5)">
<path d="M18.39 11.44C17.49 11.92 17.18 12.75 17.21 13.73C17.26 15.19 18.61 16.2 20.02 15.82C21.02 15.56 21.66 14.65 21.66 13.52C21.69 11.74 19.92 10.62 18.39 11.44Z" fill="#E18247"/>
<path d="M6.10999 11.25C5.07999 11.52 4.44999 12.39 4.42999 13.52C4.44999 13.72 4.46999 13.93 4.50999 14.13C4.82999 15.73 6.74999 16.45 8.01999 15.44C8.68999 14.91 8.92999 14.18 8.89999 13.33C8.84999 11.92 7.47999 10.88 6.10999 11.24V11.25Z" fill="#E18247"/>
<path d="M12.67 0C5.67 0 0 5.67 0 12.67C0 19.67 5.67 25.34 12.67 25.34C19.67 25.34 25.34 19.67 25.34 12.67C25.34 5.67 19.67 0 12.67 0ZM9.17 16.08C8.56 16.7 7.81 17.03 6.94 17.09C5.95 17.15 5.05 16.91 4.31 16.23C3.66 15.65 3.29 14.92 3.18 14.06C3.14 13.72 3.13 13.37 3.13 13.02C3.13 11.28 3.13 9.54 3.13 7.81C3.13 7.36 3.37 7.09 3.76 7.07C4.22 7.05 4.49 7.32 4.49 7.8C4.49 8.78 4.49 9.77 4.49 10.75V11.09C5.03 10.51 5.63 10.17 6.34 10.03C7.57 9.8 8.85 10.34 9.55 11.39C10.49 12.8 10.43 14.78 9.16 16.07L9.17 16.08ZM12.87 17.04C12.45 17.04 12.21 16.79 12.21 16.35C12.21 15.42 12.21 14.48 12.21 13.55C12.21 12.62 12.21 11.68 12.21 10.75C12.21 10.3 12.44 10.06 12.86 10.06C13.29 10.06 13.53 10.29 13.53 10.73C13.53 12.61 13.53 14.48 13.53 16.36C13.53 16.81 13.29 17.05 12.86 17.04H12.87ZM12.87 8.95C12.37 8.95 12 8.6 12 8.1C12 7.63 12.4 7.22 12.86 7.23C13.31 7.23 13.71 7.64 13.72 8.09C13.72 8.58 13.36 8.95 12.87 8.95ZM21.3 16.66C20.13 17.41 18.49 17.2 17.47 16.23L17.24 16.01C17.24 17.16 17.24 18.25 17.24 19.35C17.24 19.63 17.12 19.85 16.86 19.97C16.6 20.09 16.32 20.08 16.13 19.86C16 19.71 15.9 19.48 15.89 19.29C15.87 17.39 15.85 15.48 15.89 13.58C15.92 12.09 16.57 10.92 17.97 10.3C20.15 9.34 22.61 10.66 22.91 13.03C23.1 14.55 22.62 15.81 21.3 16.66Z" fill="#E18247"/>
</g>
<defs>
<clipPath id="clip0_101_5">
<rect width="25.34" height="25.34" fill="white"/>
</clipPath>
</defs>
</svg>
