<svg width="26" height="26" viewBox="0 0 26 26" fill="none" xmlns="http://www.w3.org/2000/svg">
<g clip-path="url(#clip0_2_85)">
<path d="M9.61 11.37C9.35736 11.3776 9.1088 11.4358 8.87905 11.5411C8.64929 11.6465 8.44299 11.7968 8.27237 11.9833C8.10174 12.1698 7.97026 12.3886 7.88568 12.6268C7.80111 12.8649 7.76518 13.1177 7.78 13.37C7.76656 13.622 7.80346 13.8742 7.88854 14.1118C7.97362 14.3493 8.10519 14.5676 8.27555 14.7538C8.44591 14.94 8.65166 15.0904 8.88077 15.1962C9.10989 15.302 9.35779 15.3611 9.61 15.37C9.86221 15.3611 10.1101 15.302 10.3392 15.1962C10.5683 15.0904 10.7741 14.94 10.9445 14.7538C11.1148 14.5676 11.2464 14.3493 11.3315 14.1118C11.4165 13.8742 11.4534 13.622 11.44 13.37C11.4562 13.1174 11.4213 12.864 11.3372 12.6253C11.2532 12.3865 11.1218 12.1671 10.9509 11.9803C10.78 11.7936 10.5731 11.6432 10.3427 11.5383C10.1123 11.4335 9.86308 11.3762 9.61 11.37Z" fill="currentColor"/>
<path d="M16.16 11.37C15.9074 11.3776 15.6588 11.4358 15.429 11.5411C15.1993 11.6465 14.993 11.7968 14.8224 11.9833C14.6517 12.1698 14.5203 12.3886 14.4357 12.6268C14.3511 12.8649 14.3152 13.1177 14.33 13.37C14.33 13.8553 14.5228 14.3208 14.866 14.664C15.2092 15.0072 15.6747 15.2 16.16 15.2C16.6453 15.2 17.1108 15.0072 17.454 14.664C17.7972 14.3208 17.99 13.8553 17.99 13.37C18.0034 13.118 17.9665 12.8658 17.8815 12.6282C17.7964 12.3906 17.6648 12.1724 17.4945 11.9862C17.3241 11.8 17.1183 11.6496 16.8892 11.5438C16.6601 11.438 16.4122 11.3789 16.16 11.37Z" fill="currentColor"/>
<path d="M12.67 0C10.1641 0 7.7145 0.743082 5.63093 2.13528C3.54735 3.52748 1.92341 5.50626 0.964446 7.8214C0.00548398 10.1365 -0.245424 12.6841 0.24345 15.1418C0.732325 17.5995 1.93903 19.8571 3.71096 21.629C5.48289 23.401 7.74047 24.6077 10.1982 25.0965C12.6559 25.5854 15.2035 25.3345 17.5186 24.3756C19.8337 23.4166 21.8125 21.7926 23.2047 19.7091C24.5969 17.6255 25.34 15.1759 25.34 12.67C25.34 9.30971 24.0051 6.08704 21.629 3.71096C19.253 1.33487 16.0303 0 12.67 0V0ZM18 19.68L16.81 18.24C18.0867 17.924 19.2142 17.1747 20 16.12C19.375 16.5469 18.7042 16.9025 18 17.18C17.1605 17.5304 16.2853 17.7886 15.39 17.95C13.8576 18.2468 12.2824 18.2468 10.75 17.95C9.8446 17.7902 8.95935 17.532 8.11 17.18C7.65933 17.0082 7.22154 16.8043 6.8 16.57C6.7435 16.546 6.68984 16.5158 6.64 16.48H6.56C6.38817 16.3852 6.22129 16.2818 6.06 16.17C6.83127 17.2132 7.94136 17.9556 9.2 18.27C8.62 18.9 8 19.69 8 19.69C6.92961 19.7304 5.86581 19.506 4.90291 19.0367C3.94001 18.5675 3.10778 17.8679 2.48 17C2.53798 13.3842 3.424 9.8299 5.07 6.61C6.50606 5.48974 8.25125 4.83704 10.07 4.74L10.25 4.96C8.52717 5.37091 6.92011 6.1676 5.55 7.29C5.55 7.29 5.95 7.08 6.61 6.79C7.90703 6.20504 9.28662 5.82388 10.7 5.66C10.8031 5.65027 10.9069 5.65027 11.01 5.66C12.2156 5.51384 13.4344 5.51384 14.64 5.66C16.5137 5.85953 18.3325 6.41264 20 7.29C18.7045 6.21797 17.1937 5.43699 15.57 5L15.82 4.71C17.6387 4.80704 19.3839 5.45974 20.82 6.58C22.475 9.80817 23.3679 13.3728 23.43 17C22.8068 17.8501 21.9879 18.5375 21.0427 19.004C20.0975 19.4705 19.0538 19.7024 18 19.68Z" fill="currentColor"/>
</g>
<defs>
<clipPath id="clip0_2_85">
<rect width="25.34" height="25.34" fill="white"/>
</clipPath>
</defs>
</svg>
