<svg width="26" height="26" viewBox="0 0 26 26" fill="none" xmlns="http://www.w3.org/2000/svg">
<path d="M12.67 0C10.1641 0 7.71449 0.743082 5.63092 2.13528C3.54735 3.52748 1.92341 5.50626 0.964444 7.8214C0.00548208 10.1365 -0.245426 12.6841 0.243449 15.1418C0.732323 17.5995 1.93902 19.8571 3.71096 21.629C5.48289 23.401 7.74046 24.6077 10.1982 25.0965C12.6559 25.5854 15.2035 25.3345 17.5186 24.3756C19.8337 23.4166 21.8125 21.7926 23.2047 19.7091C24.5969 17.6255 25.34 15.1759 25.34 12.67C25.34 9.30971 24.0051 6.08704 21.629 3.71096C19.253 1.33487 16.0303 0 12.67 0V0ZM15.41 3.14H18.49V18.07H15.41V3.14ZM11.21 8H14.3V18.07H11.21V8ZM7 6.57H10V18.07H7V6.57ZM19.89 21.05H5.45V19.56H19.89V21.05Z" fill="currentColor"/>
</svg>
