<?xml version="1.0" encoding="iso-8859-1"?>
<!-- Generator: Adobe Illustrator 26.3.1, SVG Export Plug-In . SVG Version: 6.00 Build 0)  -->
<svg version="1.1" id="Layer_1" xmlns="http://www.w3.org/2000/svg" xmlns:xlink="http://www.w3.org/1999/xlink" x="0px" y="0px"
	 viewBox="0 0 33.053 36.737" style="enable-background:new 0 0 33.053 36.737;" xml:space="preserve">
<g>
	<ellipse style="fill:#102E1A;" cx="17.12" cy="17.965" rx="10.272" ry="12.794"/>
	<ellipse style="fill:#4A684E;" cx="16.235" cy="17.965" rx="10.272" ry="12.794"/>
	<ellipse style="fill:#5B745D;" cx="16.235" cy="17.965" rx="7.494" ry="9.334"/>
	<path style="fill:#FFFFFF;" d="M19.819,14.127l-2.21-1.646V9.923c0-0.141-0.092-0.255-0.205-0.255h-0.45
		c-0.113,0-0.205,0.115-0.205,0.255v1.916l-0.183-0.136c-0.102-0.076-0.229-0.081-0.334-0.012l-0.253,0.165V9.923
		c0-0.141-0.092-0.255-0.205-0.255h-0.45c-0.113,0-0.205,0.115-0.205,0.255v2.494l-2.657,1.734
		c-0.112,0.073-0.183,0.219-0.183,0.377v6.245c0,0.15,0.064,0.29,0.168,0.366l2.672,1.975v2.579c0,0.141,0.092,0.255,0.205,0.255
		h0.45c0.113,0,0.205-0.115,0.205-0.255V23.75l0.769,0.569v1.375c0,0.141,0.092,0.255,0.205,0.255h0.45
		c0.113,0,0.205-0.115,0.205-0.255v-3.218c0-0.098-0.045-0.182-0.11-0.225c-0.018-0.02-0.037-0.038-0.058-0.054l-3.167-2.355
		c-0.104-0.077-0.168-0.216-0.168-0.366v-0.362c0-0.235,0.153-0.426,0.342-0.426h2.117c0.189,0,0.342-0.191,0.342-0.426v-1.425
		c0-0.235-0.153-0.426-0.342-0.426h-2.117c-0.189,0-0.342-0.191-0.342-0.426v-0.079c0-0.158,0.071-0.304,0.183-0.377l1.883-1.229
		c0.106-0.069,0.232-0.064,0.334,0.012l2.374,1.768c0.162,0.121,0.372,0.055,0.469-0.147l0.588-1.223
		C20.033,14.509,19.981,14.248,19.819,14.127z"/>
</g>
</svg>
