<?xml version="1.0" encoding="iso-8859-1"?>
<!-- Generator: Adobe Illustrator 26.3.1, SVG Export Plug-In . SVG Version: 6.00 Build 0)  -->
<svg version="1.1" id="Layer_1" xmlns="http://www.w3.org/2000/svg" xmlns:xlink="http://www.w3.org/1999/xlink" x="0px" y="0px"
	 viewBox="0 0 33.053 36.737" style="enable-background:new 0 0 33.053 36.737;" xml:space="preserve">
<g>
	<ellipse style="fill:#A66032;" cx="16.9" cy="18.132" rx="10.272" ry="12.794"/>
	<ellipse style="fill:#E18247;" cx="15.837" cy="18.132" rx="10.272" ry="12.794"/>
	<ellipse style="fill:#E7924A;" cx="15.837" cy="18.132" rx="7.494" ry="9.334"/>
	<g>
		<path style="fill:#FFFFFF;" d="M15.58,16.521l-4.906-3.505c-0.179-0.128-0.401,0.033-0.401,0.29v9.299
			c0,0.185,0.12,0.334,0.268,0.334h0.862c0.148,0,0.268-0.15,0.268-0.334v-6.291c0-0.257,0.223-0.417,0.401-0.29l1.815,1.297
			c0.18,0.129,0.179,0.453-0.002,0.58l-1.285,0.905c-0.084,0.059-0.136,0.17-0.136,0.291v4.774c0,0.118,0.05,0.227,0.132,0.287
			l3.065,2.257c0.086,0.064,0.194,0.062,0.279-0.005l2.877-2.256c0.078-0.061,0.125-0.168,0.125-0.283v-0.628
			c0-0.12-0.051-0.23-0.134-0.29l-2.391-1.714c-0.128-0.092-0.292-0.037-0.366,0.123l-0.43,0.931
			c-0.074,0.16-0.03,0.364,0.099,0.456l0.796,0.571c0.175,0.125,0.18,0.438,0.009,0.572l-0.608,0.476
			c-0.085,0.067-0.193,0.068-0.279,0.005l-1.644-1.21c-0.082-0.06-0.131-0.169-0.131-0.287v-2.764c0-0.12,0.052-0.231,0.136-0.291
			l1.574-1.109c0.082-0.058,0.183-0.058,0.265,0.001l1.585,1.132c0.084,0.059,0.135,0.17,0.135,0.29v0.59
			c0,0.185,0.12,0.334,0.268,0.334h0.862c0.148,0,0.268-0.15,0.268-0.334v-1.599c0-0.12-0.051-0.23-0.135-0.29l-1.293-0.923
			c-0.18-0.129-0.179-0.453,0.002-0.58l1.842-1.298c0.179-0.126,0.4,0.035,0.4,0.291v6.305c0,0.185,0.12,0.334,0.268,0.334h0.862
			c0.148,0,0.268-0.15,0.268-0.334v-9.293c0-0.256-0.221-0.417-0.4-0.291l-4.929,3.472C15.763,16.58,15.663,16.579,15.58,16.521z"/>
		<path style="fill:#FFFFFF;" d="M15.691,9.766c-0.886,0-1.604,0.895-1.604,1.998h3.208C17.295,10.661,16.577,9.766,15.691,9.766z"
			/>
		<g>
			<line style="fill:none;" x1="17.985" y1="11.764" x2="13.397" y2="11.764"/>
			<path style="fill:#FFFFFF;" d="M17.985,11.936h-4.588c-0.076,0-0.138-0.077-0.138-0.172c0-0.095,0.062-0.172,0.138-0.172h4.588
				c0.076,0,0.138,0.077,0.138,0.172C18.123,11.859,18.061,11.936,17.985,11.936z"/>
		</g>
	</g>
</g>
</svg>
