<?xml version="1.0" encoding="iso-8859-1"?>
<!-- Generator: Adobe Illustrator 26.3.1, SVG Export Plug-In . SVG Version: 6.00 Build 0)  -->
<svg version="1.1" id="Layer_1" xmlns="http://www.w3.org/2000/svg" xmlns:xlink="http://www.w3.org/1999/xlink" x="0px" y="0px"
	 viewBox="0 0 33.053 36.737" style="enable-background:new 0 0 33.053 36.737;" xml:space="preserve">
<g>
	<ellipse style="fill:#511B57;" cx="16.9" cy="18.132" rx="10.272" ry="12.794"/>
	<ellipse style="fill:#85338C;" cx="15.837" cy="18.132" rx="10.272" ry="12.794"/>
	<ellipse style="fill:#9D318B;" cx="15.837" cy="18.132" rx="7.494" ry="9.334"/>
	<g>
		<path style="fill:#FFFFFF;" d="M15.812,14.068c0.886,0,1.604-0.895,1.604-1.998h-3.208C14.207,13.174,14.925,14.068,15.812,14.068
			z"/>
		<g>
			<path style="fill:#FFFFFF;" d="M15.95,18.574l4.875,3.4c0.179,0.125,0.399-0.036,0.399-0.291v-8.438
				c0-0.256-0.221-0.417-0.4-0.291l-0.862,0.607c-0.084,0.059-0.137,0.17-0.137,0.291v4.859c0,0.255-0.22,0.416-0.399,0.291
				l-8.704-6.072c-0.179-0.125-0.399,0.036-0.399,0.291v9.288c0,0.185,0.12,0.334,0.268,0.334h0.862c0.148,0,0.268-0.15,0.268-0.334
				v-6.315c0-0.255,0.22-0.416,0.399-0.291l1.855,1.294c0.182,0.127,0.183,0.454,0.001,0.582l-1.325,0.933
				c-0.084,0.059-0.136,0.17-0.136,0.291v4.774c0,0.118,0.05,0.227,0.132,0.287l3.066,2.257c0.086,0.064,0.194,0.062,0.279-0.005
				l2.74-2.149c0.078-0.061,0.125-0.168,0.125-0.283V23.05c0-0.12-0.051-0.23-0.134-0.29l-2.254-1.615
				c-0.128-0.092-0.292-0.037-0.366,0.123l-0.43,0.931c-0.074,0.16-0.03,0.364,0.099,0.456l0.796,0.571
				c0.175,0.125,0.18,0.438,0.009,0.572l-0.608,0.476c-0.085,0.067-0.193,0.068-0.279,0.005l-1.644-1.21
				c-0.082-0.06-0.132-0.169-0.132-0.287v-2.764c0-0.12,0.052-0.231,0.136-0.291l1.637-1.153
				C15.768,18.517,15.868,18.517,15.95,18.574z"/>
			<g>
				<line style="fill:none;" x1="18.106" y1="12.071" x2="13.517" y2="12.071"/>
				<path style="fill:#FFFFFF;" d="M18.106,12.242h-4.588c-0.076,0-0.138-0.077-0.138-0.172c0-0.095,0.062-0.172,0.138-0.172h4.588
					c0.076,0,0.138,0.077,0.138,0.172C18.243,12.165,18.182,12.242,18.106,12.242z"/>
			</g>
		</g>
	</g>
</g>
</svg>
