<svg width="1em" height="1em" viewBox="0 0 64 64" fill="none" xmlns="http://www.w3.org/2000/svg">
<path fill-rule="evenodd" clip-rule="evenodd" d="M53.5455 36.4245C52.515 37.4551 50.7241 36.9873 50.1159 35.6628C49.996 35.4018 49.9308 35.1218 49.9308 34.8345L49.9308 12C49.9308 9.23855 47.6922 6.99997 44.9307 6.99997C42.1693 6.99997 39.9307 9.23856 39.9307 12L39.9307 23.5572C39.9307 24.551 38.9127 25.2256 37.965 24.9261C37.3653 24.7366 36.9321 24.1905 36.9321 23.5616L36.9321 5.00002C36.9321 2.23858 34.6935 -7.24237e-07 31.932 0C29.1706 7.24237e-07 26.932 2.23858 26.932 5.00002L26.932 23.5602C26.932 24.1896 26.4984 24.736 25.8983 24.9257C24.9501 25.2253 23.9314 24.5503 23.9314 23.5559L23.9314 12C23.9314 9.23855 21.6928 6.99997 18.9314 6.99997C16.17 6.99997 13.9314 9.23855 13.9314 12L13.9314 34.8423C13.9314 35.1241 13.8674 35.3988 13.7497 35.6548C13.1541 36.9502 11.4039 37.4037 10.3957 36.3955L8.53558 34.5354C6.58295 32.5828 3.41711 32.5828 1.46447 34.5354C-0.488161 36.488 -0.488155 39.6539 1.46448 41.6065L16.1636 56.3056C19.8241 60.9892 25.5259 64 31.9309 64C38.0696 64 43.5624 61.2344 47.2311 56.8811L62.5058 41.6065C64.4584 39.6538 64.4584 36.488 62.5058 34.5354C60.5532 32.5827 57.3873 32.5827 55.4347 34.5354L53.5455 36.4245ZM31.9298 56.0002C40.7664 56.0002 47.9299 46.0001 47.9299 46.0001C47.9299 46.0001 40.7664 36.0001 31.9298 36.0001C23.0932 36.0001 15.9297 46.0002 15.9297 46.0002C15.9297 46.0002 23.0932 56.0002 31.9298 56.0002Z" fill="white"/>
<path d="M37.9303 46.0005C37.9303 49.3142 35.244 52.0005 31.9303 52.0005C28.6165 52.0005 25.9302 49.3142 25.9302 46.0005C25.9302 42.6867 28.6165 40.0004 31.9303 40.0004C35.244 40.0004 37.9303 42.6867 37.9303 46.0005Z" fill="white"/>
</svg>
