<svg width="1em" height="1em" viewBox="0 0 82 82" fill="none" xmlns="http://www.w3.org/2000/svg">
<rect width="82" height="82" rx="12" fill="#D5FF5C"/>
<path fill-rule="evenodd" clip-rule="evenodd" d="M59.1162 44.6631C59.7243 45.9874 61.5149 46.4551 62.5453 45.4247L64.435 43.535C66.3876 41.5824 69.5535 41.5824 71.5061 43.535C73.4587 45.4876 73.4587 48.6535 71.5061 50.6061L56.234 65.8781C52.5653 70.2331 47.0714 73 40.9314 73C34.5284 73 28.8282 69.9911 25.1676 65.3102L10.4645 50.607C8.5119 48.6544 8.51189 45.4886 10.4645 43.536C12.4171 41.5834 15.583 41.5834 17.5356 43.536L19.3966 45.397C20.4045 46.4049 22.1543 45.9515 22.7496 44.6564C22.8672 44.4005 22.9312 44.1259 22.9312 43.8443L22.9311 20.9999C22.9311 18.2385 25.1697 15.9999 27.9311 15.9999C30.6926 15.9999 32.9311 18.2385 32.9311 20.9999L32.9311 32.5564C32.9311 33.5508 33.9498 34.2258 34.898 33.9262C35.4981 33.7365 35.9316 33.1902 35.9316 32.5608L35.9316 14C35.9316 11.2386 38.1702 9.00003 40.9316 9.00003C43.693 9.00003 45.9316 11.2386 45.9316 14L45.9316 32.5612C45.9316 33.1904 46.365 33.7366 46.9649 33.9262C47.9128 34.2258 48.9312 33.551 48.9312 32.5569L48.9312 20.9999C48.9312 18.2385 51.1698 15.9999 53.9312 15.9999C56.6926 15.9999 58.9312 18.2385 58.9312 20.9999L58.9312 43.835C58.9312 44.1222 58.9964 44.4021 59.1162 44.6631Z" fill="#FD4848"/>
<path d="M56.9318 54.9999C56.9318 54.9999 49.7684 64.9999 40.9318 64.9999C32.0953 64.9999 24.9318 54.9999 24.9318 54.9999C24.9318 54.9999 32.0953 44.9999 40.9318 44.9999C49.7684 44.9999 56.9318 54.9999 56.9318 54.9999Z" fill="#D5FF5C"/>
<path d="M48.4316 55.0001C48.4316 59.142 45.074 62.4997 40.932 62.4997C36.7901 62.4997 33.4324 59.142 33.4324 55.0001C33.4324 50.8582 36.7901 47.5005 40.932 47.5005C45.074 47.5005 48.4316 50.8582 48.4316 55.0001Z" stroke="#FD4848" stroke-width="1.00078"/>
<path d="M45.4314 55.0003C45.4314 57.4854 43.4168 59.5 40.9318 59.5C38.4467 59.5 36.4322 57.4854 36.4322 55.0003C36.4322 52.5153 38.4467 50.5007 40.9318 50.5007C43.4168 50.5007 45.4314 52.5153 45.4314 55.0003Z" stroke="#FD4848" stroke-width="1.00078"/>
<path d="M51.4314 55.0001C51.4315 60.7988 46.7306 65.4997 40.9318 65.4997C35.1331 65.4997 30.4322 60.7988 30.4322 55.0001C30.4322 49.2013 35.1331 44.5005 40.9318 44.5005C46.7306 44.5005 51.4314 49.2013 51.4314 55.0001Z" stroke="#FD4848" stroke-width="1.00078"/>
<path d="M54.4314 55C54.4314 62.4556 48.3874 68.4996 40.9318 68.4996C33.4761 68.4996 27.4322 62.4557 27.4322 55C27.4322 47.5444 33.4761 41.5004 40.9318 41.5004C48.3874 41.5004 54.4314 47.5444 54.4314 55Z" stroke="#FD4848" stroke-width="1.00078"/>
<ellipse cx="40.9321" cy="54.9999" rx="2" ry="2" fill="#FD4848"/>
<path d="M25.6516 55.122C25.6174 55.0781 25.5859 55.0374 25.5571 54.9999C25.5859 54.9625 25.6174 54.9218 25.6516 54.8779C25.8601 54.6103 26.1692 54.2262 26.5679 53.7645C27.366 52.8404 28.5204 51.6089 29.9451 50.3787C32.8102 47.9049 36.6948 45.5003 40.9318 45.5003C45.1689 45.5003 49.0534 47.9049 51.9185 50.3787C53.3433 51.6089 54.4977 52.8404 55.2958 53.7645C55.6945 54.2262 56.0035 54.6103 56.2121 54.8779C56.2463 54.9217 56.2778 54.9625 56.3066 54.9999C56.2778 55.0374 56.2463 55.0781 56.2121 55.122C56.0035 55.3896 55.6945 55.7737 55.2958 56.2354C54.4977 57.1595 53.3433 58.391 51.9185 59.6212C49.0534 62.095 45.1689 64.4995 40.9318 64.4995C36.6948 64.4995 32.8102 62.095 29.9451 59.6212C28.5204 58.391 27.366 57.1595 26.5679 56.2354C26.1692 55.7737 25.8601 55.3896 25.6516 55.122Z" stroke="#D5FF5C" stroke-width="1.00078"/>
</svg>
