<?xml version="1.0" encoding="iso-8859-1"?>
<!-- Generator: Adobe Illustrator 26.3.1, SVG Export Plug-In . SVG Version: 6.00 Build 0)  -->
<svg version="1.1" id="Layer_1" xmlns="http://www.w3.org/2000/svg" xmlns:xlink="http://www.w3.org/1999/xlink" x="0px" y="0px"
	 viewBox="0 0 300 300" style="enable-background:new 0 0 300 300;" xml:space="preserve">
<g>
	<path style="fill:#949698;" d="M240.867,242.252c-0.434,0-0.869-0.165-1.2-0.497L58.094,60.578
		c-0.664-0.663-0.666-1.739-0.003-2.404c0.663-0.665,1.739-0.666,2.404-0.003l181.573,181.178c0.664,0.663,0.666,1.738,0.003,2.403
		C241.738,242.086,241.302,242.252,240.867,242.252z"/>
	<path style="fill:#949698;" d="M59.492,242.449c-0.434,0-0.869-0.166-1.2-0.497c-0.664-0.663-0.666-1.738-0.003-2.403
		L239.466,57.977c0.663-0.664,1.739-0.666,2.404-0.003c0.664,0.663,0.666,1.739,0.003,2.404L60.695,241.949
		C60.363,242.283,59.928,242.449,59.492,242.449z"/>
	<g>
		
			<linearGradient id="SVGID_1_" gradientUnits="userSpaceOnUse" x1="244.569" y1="741.0854" x2="244.569" y2="629.5685" gradientTransform="matrix(1 -0.0011 -0.0011 -1 -93.8329 733.0567)">
			<stop  offset="0" style="stop-color:#FDDE4F"/>
			<stop  offset="0.1529" style="stop-color:#F4C34E"/>
			<stop  offset="0.4545" style="stop-color:#E89549"/>
			<stop  offset="0.7064" style="stop-color:#E07345"/>
			<stop  offset="0.8953" style="stop-color:#DC5A42"/>
			<stop  offset="1" style="stop-color:#DA5041"/>
		</linearGradient>
		<path style="fill:url(#SVGID_1_);" d="M148.797,45.658l-40.004-22.891c-1.457-0.834-3.272,0.22-3.27,1.899l0.066,60.848
			c0.001,1.207,0.98,2.184,2.188,2.183l7.031-0.008c1.207-0.001,2.184-0.98,2.183-2.188l-0.045-41.165
			c-0.002-1.679,1.812-2.733,3.27-1.899l14.804,8.471c1.47,0.841,1.465,2.962-0.008,3.797l-10.469,5.936
			c-0.685,0.389-1.108,1.116-1.107,1.903l0.034,31.235c0.001,0.772,0.409,1.487,1.075,1.879l24.997,14.744
			c0.705,0.416,1.584,0.403,2.276-0.034l23.431-14.789c0.635-0.401,1.02-1.099,1.019-1.85l-0.005-4.112
			c-0.001-0.782-0.419-1.504-1.097-1.893l-19.497-11.192c-1.047-0.601-2.382-0.24-2.982,0.807l-3.499,6.097
			c-0.601,1.047-0.24,2.382,0.807,2.982l6.495,3.728c1.428,0.819,1.471,2.864,0.078,3.743l-4.949,3.124
			c-0.693,0.437-1.571,0.45-2.276,0.034l-13.403-7.906c-0.665-0.393-1.074-1.107-1.075-1.879l-0.02-18.082
			c-0.001-0.788,0.422-1.515,1.107-1.903l12.819-7.27c0.671-0.381,1.493-0.379,2.163,0.004l12.923,7.395
			c0.68,0.389,1.099,1.111,1.1,1.894l0.004,3.859c0.001,1.207,0.98,2.184,2.188,2.183l7.031-0.008
			c1.207-0.001,2.184-0.98,2.183-2.188l-0.011-10.462c-0.001-0.783-0.421-1.505-1.1-1.894l-10.539-6.03
			c-1.469-0.841-1.465-2.962,0.008-3.797l15.005-8.509c1.456-0.825,3.261,0.225,3.263,1.898l0.045,41.259
			c0.001,1.207,0.98,2.184,2.188,2.183l7.031-0.008c1.207-0.001,2.184-0.98,2.183-2.188l-0.066-60.805
			c-0.002-1.673-1.807-2.724-3.263-1.898L150.963,45.66C150.289,46.042,149.467,46.041,148.797,45.658z"/>
		
			<linearGradient id="SVGID_00000000194268073435037560000005790841992950016165_" gradientUnits="userSpaceOnUse" x1="244.3027" y1="741.0854" x2="244.3027" y2="629.5685" gradientTransform="matrix(1 -0.0011 -0.0011 -1 -93.8329 733.0567)">
			<stop  offset="0" style="stop-color:#FDDE4F"/>
			<stop  offset="0.1529" style="stop-color:#F4C34E"/>
			<stop  offset="0.4545" style="stop-color:#E89549"/>
			<stop  offset="0.7064" style="stop-color:#E07345"/>
			<stop  offset="0.8953" style="stop-color:#DC5A42"/>
			<stop  offset="1" style="stop-color:#DA5041"/>
		</linearGradient>
		<path style="fill:url(#SVGID_00000000194268073435037560000005790841992950016165_);" d="M149.652,1.461
			c-7.219,0.008-13.066,5.867-13.058,13.086l26.145-0.028C162.73,7.3,156.871,1.453,149.652,1.461z"/>
		<g>
			<line style="fill:none;" x1="168.363" y1="14.512" x2="130.97" y2="14.554"/>
			
				<linearGradient id="SVGID_00000098939998843220452830000008053526829810037389_" gradientUnits="userSpaceOnUse" x1="244.3026" y1="741.0854" x2="244.3026" y2="629.5685" gradientTransform="matrix(1 -0.0011 -0.0011 -1 -93.8329 733.0567)">
				<stop  offset="0" style="stop-color:#FDDE4F"/>
				<stop  offset="0.1529" style="stop-color:#F4C34E"/>
				<stop  offset="0.4545" style="stop-color:#E89549"/>
				<stop  offset="0.7064" style="stop-color:#E07345"/>
				<stop  offset="0.8953" style="stop-color:#DC5A42"/>
				<stop  offset="1" style="stop-color:#DA5041"/>
			</linearGradient>
			<path style="fill:url(#SVGID_00000098939998843220452830000008053526829810037389_);" d="M168.363,15.638l-37.393,0.041
				c-0.621,0.001-1.125-0.502-1.126-1.124s0.502-1.125,1.124-1.126l37.393-0.041c0.621-0.001,1.125,0.502,1.126,1.124
				C169.488,15.133,168.985,15.637,168.363,15.638z"/>
		</g>
	</g>
	<g>
		<g>
			<path style="fill:none;" d="M228.76,135.465l-18.082,0.02c-0.772,0.001-1.487,0.41-1.88,1.075l-7.906,13.403
				c-0.416,0.705-0.403,1.584,0.034,2.276l9.38,13.358l18.333-0.02c0.783-0.001,1.505-0.42,1.894-1.1l7.395-12.923
				c0.383-0.67,0.385-1.492,0.004-2.163l-7.27-12.819C230.275,135.887,229.548,135.464,228.76,135.465z"/>
			
				<linearGradient id="SVGID_00000118364694670134313080000013199254768815282104_" gradientUnits="userSpaceOnUse" x1="1371.8851" y1="15.5114" x2="1265.2709" y2="86.2812" gradientTransform="matrix(0.8655 -0.5009 -0.5009 -0.8655 -869.3385 855.4)">
				<stop  offset="0" style="stop-color:#87C29B"/>
				<stop  offset="0.1137" style="stop-color:#79AB88"/>
				<stop  offset="0.5213" style="stop-color:#53775A"/>
				<stop  offset="0.8293" style="stop-color:#3E5B41"/>
				<stop  offset="1" style="stop-color:#375139"/>
			</linearGradient>
			<path style="fill:url(#SVGID_00000118364694670134313080000013199254768815282104_);" d="M273.278,106.146l-60.848,0.067
				c-1.207,0.001-2.184,0.98-2.183,2.188l0.008,7.031c0.001,1.207,0.98,2.184,2.188,2.183l41.164-0.045
				c1.679-0.002,2.733,1.812,1.899,3.27l-8.471,14.804c-0.841,1.47-2.962,1.465-3.797-0.008l-5.936-10.469
				c-0.389-0.685-1.116-1.108-1.903-1.107l-31.235,0.034c-0.772,0.001-1.487,0.409-1.879,1.075l-14.744,24.997
				c-0.416,0.705-0.403,1.584,0.034,2.276l14.789,23.431c0.401,0.635,1.099,1.02,1.85,1.019l0.646-0.001
				c0.212,0.068,0.433,0.114,0.668,0.114l29.729-0.032c0.783-0.001,1.505-0.42,1.894-1.1l6.03-10.539
				c0.841-1.47,2.962-1.465,3.797,0.008l8.509,15.005c0.825,1.456-0.225,3.261-1.898,3.263l-41.259,0.045
				c-1.207,0.001-2.184,0.98-2.183,2.188l0.008,7.031c0.001,1.207,0.98,2.184,2.188,2.183l60.805-0.066
				c1.673-0.002,2.724-1.807,1.898-3.263l-22.763-40.142c-0.382-0.673-0.38-1.495,0.003-2.164l22.891-40.004
				C276.011,107.959,274.957,106.144,273.278,106.146z M237.929,151.554l-7.395,12.923c-0.389,0.68-1.111,1.099-1.894,1.1
				l-18.333,0.02l-9.38-13.358c-0.437-0.693-0.45-1.571-0.034-2.276l7.906-13.403c0.393-0.665,1.107-1.074,1.88-1.075l18.082-0.02
				c0.788-0.001,1.515,0.422,1.903,1.107l7.27,12.819C238.314,150.063,238.312,150.885,237.929,151.554z"/>
		</g>
		<g>
			<line style="fill:none;" x1="283.43" y1="168.985" x2="283.389" y2="131.593"/>
			
				<linearGradient id="SVGID_00000035495326746817693980000016173584659953286564_" gradientUnits="userSpaceOnUse" x1="1373.4329" y1="17.8431" x2="1266.8187" y2="88.6129" gradientTransform="matrix(0.8655 -0.5009 -0.5009 -0.8655 -869.3385 855.4)">
				<stop  offset="0" style="stop-color:#87C29B"/>
				<stop  offset="0.1137" style="stop-color:#79AB88"/>
				<stop  offset="0.5213" style="stop-color:#53775A"/>
				<stop  offset="0.8293" style="stop-color:#3E5B41"/>
				<stop  offset="1" style="stop-color:#375139"/>
			</linearGradient>
			<path style="fill:url(#SVGID_00000035495326746817693980000016173584659953286564_);" d="M282.305,168.987l-0.041-37.393
				c-0.001-0.621,0.502-1.125,1.124-1.126c0.621-0.001,1.125,0.502,1.126,1.124l0.041,37.393c0.001,0.621-0.502,1.125-1.124,1.126
				C282.81,170.111,282.306,169.608,282.305,168.987z"/>
		</g>
	</g>
	<g>
		
			<linearGradient id="SVGID_00000181798522166017172210000013538286771759265720_" gradientUnits="userSpaceOnUse" x1="286.9013" y1="665.7648" x2="368.7001" y2="711.7191" gradientTransform="matrix(0.4866 -0.8736 -0.8736 -0.4866 592.011 858.8354)">
			<stop  offset="0.2153" style="stop-color:#85338C"/>
			<stop  offset="0.336" style="stop-color:#7C3587"/>
			<stop  offset="0.5564" style="stop-color:#623D80"/>
			<stop  offset="0.8493" style="stop-color:#394375"/>
			<stop  offset="1" style="stop-color:#1B446D"/>
		</linearGradient>
		<path style="fill:url(#SVGID_00000181798522166017172210000013538286771759265720_);" d="M149.819,266.039
			c-7.219,0.111-12.981,6.053-12.87,13.271l26.141-0.401C162.979,271.69,157.038,265.928,149.819,266.039z"/>
		<g>
			
				<linearGradient id="SVGID_00000147937746855270608690000009173664471376825258_" gradientUnits="userSpaceOnUse" x1="286.8525" y1="665.8516" x2="368.6513" y2="711.8059" gradientTransform="matrix(0.4866 -0.8736 -0.8736 -0.4866 592.011 858.8354)">
				<stop  offset="0.2153" style="stop-color:#85338C"/>
				<stop  offset="0.336" style="stop-color:#7C3587"/>
				<stop  offset="0.5564" style="stop-color:#623D80"/>
				<stop  offset="0.8493" style="stop-color:#394375"/>
				<stop  offset="1" style="stop-color:#1B446D"/>
			</linearGradient>
			<path style="fill:url(#SVGID_00000147937746855270608690000009173664471376825258_);" d="M148.237,236.578l-40.062-21.638
				c-1.469-0.793-3.249,0.287-3.223,1.956l0.847,55.21c0.026,1.672,1.844,2.697,3.288,1.853l6.969-4.076
				c0.68-0.398,1.094-1.132,1.082-1.92l-0.488-31.792c-0.025-1.67,1.755-2.749,3.223-1.956l71.537,38.638
				c1.469,0.793,3.249-0.287,3.223-1.956l-0.933-60.769c-0.019-1.207-1.012-2.17-2.218-2.151l-7.029,0.108
				c-1.207,0.019-2.17,1.012-2.151,2.218l0.634,41.32c0.025,1.67-1.755,2.749-3.223,1.956l-15.244-8.233
				c-1.499-0.81-1.536-2.946-0.067-3.808l10.701-6.271c0.679-0.398,1.092-1.131,1.08-1.919l-0.479-31.231
				c-0.012-0.772-0.431-1.481-1.102-1.864l-25.204-14.385c-0.711-0.406-1.589-0.38-2.276,0.067l-22.111,14.401
				c-0.629,0.41-1.004,1.114-0.992,1.864l0.084,5.457c0.012,0.782,0.441,1.497,1.124,1.877l18.528,10.287
				c1.055,0.585,2.385,0.206,2.971-0.85l3.412-6.146c0.586-1.055,0.206-2.385-0.85-2.971l-6.547-3.635
				c-1.439-0.799-1.512-2.842-0.132-3.741l4.904-3.194c0.686-0.447,1.564-0.472,2.276-0.067l13.514,7.714
				c0.671,0.383,1.09,1.091,1.102,1.864l0.278,18.08c0.012,0.788-0.401,1.521-1.08,1.919l-13.222,7.749
				C149.722,236.926,148.909,236.941,148.237,236.578z"/>
			<g>
				<line style="fill:none;" x1="131.325" y1="279.396" x2="168.713" y2="278.822"/>
				
					<linearGradient id="SVGID_00000034786145707461612140000003951577964960729269_" gradientUnits="userSpaceOnUse" x1="286.9015" y1="665.7644" x2="368.7003" y2="711.7188" gradientTransform="matrix(0.4866 -0.8736 -0.8736 -0.4866 592.011 858.8354)">
					<stop  offset="0.2153" style="stop-color:#85338C"/>
					<stop  offset="0.336" style="stop-color:#7C3587"/>
					<stop  offset="0.5564" style="stop-color:#623D80"/>
					<stop  offset="0.8493" style="stop-color:#394375"/>
					<stop  offset="1" style="stop-color:#1B446D"/>
				</linearGradient>
				<path style="fill:url(#SVGID_00000034786145707461612140000003951577964960729269_);" d="M131.308,278.272l37.388-0.574
					c0.621-0.01,1.132,0.486,1.142,1.107c0.01,0.621-0.486,1.132-1.107,1.142l-37.388,0.574c-0.621,0.01-1.132-0.486-1.142-1.107
					C130.191,278.793,130.687,278.281,131.308,278.272z"/>
			</g>
		</g>
	</g>
	<g>
		<g>
			
				<linearGradient id="SVGID_00000142138256069300718300000005811444224166233486_" gradientUnits="userSpaceOnUse" x1="19.6634" y1="149.077" x2="105.1539" y2="109.5218" gradientTransform="matrix(0.9186 -0.3951 -0.3951 -0.9186 62.3152 293.103)">
				<stop  offset="0" style="stop-color:#1B446D"/>
				<stop  offset="0.2866" style="stop-color:#3F4962"/>
				<stop  offset="0.5426" style="stop-color:#434755"/>
				<stop  offset="0.7538" style="stop-color:#3A3B41"/>
				<stop  offset="0.9123" style="stop-color:#1D1D1E"/>
				<stop  offset="1" style="stop-color:#010101"/>
			</linearGradient>
			<path style="fill:url(#SVGID_00000142138256069300718300000005811444224166233486_);" d="M111.697,147.309l-14.438-23.014
				c-0.402-0.634-1.101-1.018-1.852-1.015l-20.553-0.313l8.321-14.961c0.812-1.459-0.247-3.252-1.916-3.247l-55.216,0.164
				c-1.673,0.005-2.719,1.811-1.893,3.265l3.989,7.019c0.389,0.685,1.118,1.108,1.906,1.105l31.796-0.095
				c1.669-0.005,2.727,1.788,1.916,3.247l-39.519,71.054c-0.812,1.459,0.247,3.252,1.916,3.247l60.777-0.181
				c1.207-0.004,2.182-0.985,2.178-2.191l-0.021-7.03c-0.004-1.207-0.985-2.182-2.191-2.178l-41.325,0.123
				c-1.669,0.005-2.727-1.788-1.916-3.247l8.421-15.141c0.828-1.489,2.965-1.5,3.808-0.019l6.138,10.778
				c0.39,0.684,1.118,1.106,1.905,1.103l31.234-0.093c0.772-0.002,1.486-0.412,1.878-1.079l14.697-25.025
				C112.15,148.879,112.135,148.001,111.697,147.309z M98.382,149.812l-7.88,13.418c-0.392,0.666-1.105,1.076-1.877,1.078
				l-18.082,0.054c-0.788,0.003-1.516-0.419-1.905-1.103l-7.584-13.317c-0.378-0.664-0.382-1.476-0.011-2.144l7.13-12.819
				c0,0,0.448-0.693,1.313-0.71c0.865-0.018,18.571-0.149,18.571-0.149s1.019-0.131,1.704,0.859
				c0.684,0.99,8.584,12.557,8.584,12.557C98.782,148.228,98.797,149.106,98.382,149.812z"/>
			
				<linearGradient id="SVGID_00000032620103604939415820000004526118892734539694_" gradientUnits="userSpaceOnUse" x1="19.3495" y1="148.3987" x2="104.84" y2="108.8433" gradientTransform="matrix(0.9186 -0.3951 -0.3951 -0.9186 62.3152 293.103)">
				<stop  offset="0" style="stop-color:#1B446D"/>
				<stop  offset="0.2866" style="stop-color:#3F4962"/>
				<stop  offset="0.5426" style="stop-color:#434755"/>
				<stop  offset="0.7538" style="stop-color:#3A3B41"/>
				<stop  offset="0.9123" style="stop-color:#1D1D1E"/>
				<stop  offset="1" style="stop-color:#010101"/>
			</linearGradient>
			<path style="fill:url(#SVGID_00000032620103604939415820000004526118892734539694_);" d="M18.551,168.875
				c0.621-0.002,1.123-0.507,1.121-1.128l-0.111-37.392c-0.002-0.621-0.507-1.123-1.128-1.121c-0.621,0.002-1.123,0.507-1.121,1.128
				l0.111,37.392C17.425,168.374,17.93,168.877,18.551,168.875z"/>
		</g>
		
			<ellipse transform="matrix(0.9186 -0.3951 0.3951 0.9186 -39.5825 30.1561)" style="fill:#FFFFFF;" cx="53.424" cy="111.179" rx="1.22" ry="1.22"/>
		
			<ellipse transform="matrix(0.9186 -0.3951 0.3951 0.9186 -39.1482 36.8262)" style="fill:#FFFFFF;" cx="69.835" cy="113.46" rx="1.22" ry="1.22"/>
		
			<ellipse transform="matrix(0.9186 -0.3951 0.3951 0.9186 -65.8039 28.4302)" style="fill:#FFFFFF;" cx="36.123" cy="173.979" rx="0.73" ry="0.73"/>
		
			<ellipse transform="matrix(0.9186 -0.3951 0.3951 0.9186 -66.5511 30.4587)" style="fill:#FFFFFF;" cx="40.674" cy="176.807" rx="0.73" ry="0.73"/>
		
			<ellipse transform="matrix(0.9186 -0.3951 0.3951 0.9186 -69.2786 35.9559)" style="fill:#FFFFFF;" cx="52.657" cy="186.178" rx="0.73" ry="0.73"/>
		
			<ellipse transform="matrix(0.9186 -0.3951 0.3951 0.9186 -70.1745 31.1551)" style="fill:#FFFFFF;" cx="40.553" cy="185.952" rx="0.73" ry="0.73"/>
		
			<ellipse transform="matrix(0.9186 -0.3951 0.3951 0.9186 -36.2798 39.9392)" style="fill:#FFFFFF;" cx="78.827" cy="108.052" rx="0.73" ry="0.73"/>
		
			<ellipse transform="matrix(0.9186 -0.3951 0.3951 0.9186 -45.5602 37.6208)" style="fill:#FFFFFF;" cx="68.558" cy="129.425" rx="0.73" ry="0.73"/>
		
			<ellipse transform="matrix(0.9186 -0.3951 0.3951 0.9186 -60.9927 29.6185)" style="fill:#FFFFFF;" cx="41.414" cy="162.892" rx="0.73" ry="0.73"/>
		
			<ellipse transform="matrix(0.9186 -0.3951 0.3951 0.9186 -62.4409 32.4958)" style="fill:#FFFFFF;" cx="47.675" cy="167.846" rx="0.73" ry="0.73"/>
		
			<ellipse transform="matrix(0.9186 -0.3951 0.3951 0.9186 -53.8803 33.9225)" style="fill:#FFFFFF;" cx="55.419" cy="147.776" rx="0.73" ry="0.73"/>
		
			<ellipse transform="matrix(0.9186 -0.3951 0.3951 0.9186 -57.3815 31.9908)" style="fill:#FFFFFF;" cx="48.979" cy="155.31" rx="0.73" ry="0.73"/>
		
			<ellipse transform="matrix(0.9186 -0.3951 0.3951 0.9186 -60.7991 39.6118)" style="fill:#FFFFFF;" cx="65.773" cy="167.418" rx="0.73" ry="0.73"/>
		
			<ellipse transform="matrix(0.9186 -0.3951 0.3951 0.9186 -41.8406 36.7112)" style="fill:#FFFFFF;" cx="68.21" cy="119.939" rx="0.73" ry="0.73"/>
		
			<ellipse transform="matrix(0.9186 -0.3951 0.3951 0.9186 -37.6456 32.3238)" style="fill:#FFFFFF;" cx="59.655" cy="107.561" rx="0.73" ry="0.73"/>
		
			<ellipse transform="matrix(0.9186 -0.3951 0.3951 0.9186 -73.5812 25.6933)" style="fill:#FFFFFF;" cx="25.59" cy="191.493" rx="0.73" ry="0.73"/>
		
			<ellipse transform="matrix(0.9186 -0.3951 0.3951 0.9186 -68.2668 28.2271)" style="fill:#FFFFFF;" cx="34.398" cy="179.857" rx="0.73" ry="0.73"/>
		
			<ellipse transform="matrix(0.9186 -0.3951 0.3951 0.9186 -70.7747 26.8005)" style="fill:#FFFFFF;" cx="29.681" cy="185.232" rx="0.73" ry="0.73"/>
		
			<ellipse transform="matrix(0.9186 -0.3951 0.3951 0.9186 -72.5368 27.7782)" style="fill:#FFFFFF;" cx="31.174" cy="189.999" rx="0.73" ry="0.73"/>
		
			<ellipse transform="matrix(0.9186 -0.3951 0.3951 0.9186 -39.1241 26.7115)" style="fill:#FFFFFF;" cx="45.29" cy="108.344" rx="1.22" ry="1.22"/>
		
			<ellipse transform="matrix(0.9186 -0.3951 0.3951 0.9186 -45.6111 34.8381)" style="fill:#FFFFFF;" cx="61.777" cy="128.157" rx="1.22" ry="1.22"/>
		
			<ellipse transform="matrix(0.9186 -0.3951 0.3951 0.9186 -59.7061 31.3665)" style="fill:#FFFFFF;" cx="46.301" cy="160.642" rx="1.22" ry="1.22"/>
		
			<ellipse transform="matrix(0.9186 -0.3951 0.3951 0.9186 -70.4067 38.2334)" style="fill:#FFFFFF;" cx="57.622" cy="190.055" rx="1.22" ry="1.22"/>
		
			<ellipse transform="matrix(0.9186 -0.3951 0.3951 0.9186 -50.6507 34.4979)" style="fill:#FFFFFF;" cx="58.431" cy="140.222" rx="1.22" ry="1.22"/>
		
			<ellipse transform="matrix(0.9186 -0.3951 0.3951 0.9186 -56.4097 36.4374)" style="fill:#FFFFFF;" cx="60.261" cy="155.174" rx="1.22" ry="1.22"/>
		
			<ellipse transform="matrix(0.9186 -0.3951 0.3951 0.9186 -58.4005 34.4684)" style="fill:#FFFFFF;" cx="54.485" cy="159.023" rx="1.22" ry="1.22"/>
		
			<ellipse transform="matrix(0.9186 -0.3951 0.3951 0.9186 -69.6637 29.6465)" style="fill:#FFFFFF;" cx="37.146" cy="183.958" rx="1.22" ry="1.22"/>
		
			<ellipse transform="matrix(0.9186 -0.3951 0.3951 0.9186 -40.7939 20.7256)" style="fill:#FFFFFF;" cx="29.922" cy="109.405" rx="1.22" ry="1.22"/>
		
			<ellipse transform="matrix(0.9186 -0.3951 0.3951 0.9186 -40.8535 23.0578)" style="fill:#FFFFFF;" cx="35.555" cy="110.716" rx="0.73" ry="0.73"/>
	</g>
</g>
</svg>
