<svg width="119" height="119" viewBox="0 0 119 119" fill="none" xmlns="http://www.w3.org/2000/svg">
<g clip-path="url(#clip0_39_2)">
<path d="M57.86 118.2C89.8152 118.2 115.72 92.2952 115.72 60.34C115.72 28.3848 89.8152 2.48001 57.86 2.48001C25.9048 2.48001 0 28.3848 0 60.34C0 92.2952 25.9048 118.2 57.86 118.2Z" fill="url(#paint0_linear_39_2)"/>
<path d="M60.34 115.72C92.2952 115.72 118.2 89.8152 118.2 57.86C118.2 25.9048 92.2952 0 60.34 0C28.3848 0 2.48001 25.9048 2.48001 57.86C2.48001 89.8152 28.3848 115.72 60.34 115.72Z" fill="url(#paint1_linear_39_2)"/>
<path d="M60.34 100.98C84.1545 100.98 103.46 81.6745 103.46 57.86C103.46 34.0455 84.1545 14.74 60.34 14.74C36.5255 14.74 17.22 34.0455 17.22 57.86C17.22 81.6745 36.5255 100.98 60.34 100.98Z" fill="url(#paint2_linear_39_2)"/>
<path d="M60.34 100.07C83.6519 100.07 102.55 81.1719 102.55 57.86C102.55 34.5481 83.6519 15.65 60.34 15.65C37.0281 15.65 18.13 34.5481 18.13 57.86C18.13 81.1719 37.0281 100.07 60.34 100.07Z" fill="url(#paint3_linear_39_2)"/>
<path d="M88.66 37H66V23C65.9912 22.8883 65.9524 22.781 65.8875 22.6896C65.8226 22.5982 65.7342 22.5261 65.6316 22.4809C65.529 22.4358 65.4161 22.4193 65.3049 22.4332C65.1936 22.4471 65.0883 22.491 65 22.56L61 26.49C60.9416 26.5472 60.8955 26.6157 60.8646 26.6914C60.8336 26.7671 60.8184 26.8483 60.82 26.93V37H58.82V30.17C58.8112 30.0583 58.7724 29.951 58.7075 29.8596C58.6426 29.7682 58.5542 29.6961 58.4516 29.6509C58.349 29.6058 58.2361 29.5893 58.1249 29.6032C58.0136 29.6171 57.9083 29.661 57.82 29.73L53.82 33.66C53.7616 33.7172 53.7155 33.7857 53.6846 33.8614C53.6536 33.9371 53.6384 34.0183 53.64 34.1V37H32C31.7419 37.0005 31.4897 37.0773 31.275 37.2206C31.0604 37.364 30.8928 37.5675 30.7935 37.8058C30.6941 38.044 30.6674 38.3063 30.7166 38.5597C30.7658 38.813 30.8887 39.0462 31.07 39.23L39.79 48V86.07C39.7897 86.3261 39.865 86.5767 40.0066 86.7901C40.1482 87.0036 40.3497 87.1705 40.5858 87.2698C40.8219 87.3692 41.082 87.3966 41.3336 87.3486C41.5852 87.3006 41.8171 87.1793 42 87L50.34 78.73C50.5825 78.481 50.7187 78.1475 50.72 77.8V68H60.3C60.4716 67.9994 60.6413 67.9647 60.7993 67.8977C60.9573 67.8307 61.1003 67.7329 61.22 67.61L69.5 59.3C69.6827 59.1176 69.807 58.8849 69.857 58.6316C69.907 58.3783 69.8804 58.1158 69.7806 57.8776C69.6808 57.6395 69.5124 57.4365 69.2968 57.2944C69.0812 57.1523 68.8282 57.0777 68.57 57.08H50.73V48H80.39C80.5616 47.9994 80.7313 47.9647 80.8893 47.8977C81.0473 47.8307 81.1903 47.7329 81.31 47.61L89.59 39.28C89.7893 39.0995 89.9283 38.862 89.988 38.5997C90.0476 38.3375 90.0252 38.0633 89.9236 37.8143C89.822 37.5652 89.6463 37.3535 89.4202 37.2078C89.1941 37.0622 88.9287 36.9896 88.66 37Z" fill="white"/>
</g>
<defs>
<linearGradient id="paint0_linear_39_2" x1="6.75" y1="50.12" x2="109.84" y2="70.74" gradientUnits="userSpaceOnUse">
<stop stop-color="#AD5C32"/>
<stop offset="0.24" stop-color="#994D3D"/>
<stop offset="0.75" stop-color="#6C2B4B"/>
<stop offset="1" stop-color="#59174E"/>
</linearGradient>
<linearGradient id="paint1_linear_39_2" x1="9.23001" y1="47.64" x2="112.32" y2="68.26" gradientUnits="userSpaceOnUse">
<stop stop-color="#E47944"/>
<stop offset="0.24" stop-color="#C86552"/>
<stop offset="0.77" stop-color="#8E3964"/>
<stop offset="1" stop-color="#782368"/>
</linearGradient>
<linearGradient id="paint2_linear_39_2" x1="22.25" y1="50.25" x2="99.08" y2="65.61" gradientUnits="userSpaceOnUse">
<stop stop-color="#AD5C32"/>
<stop offset="0.24" stop-color="#994D3D"/>
<stop offset="0.75" stop-color="#6C2B4B"/>
<stop offset="1" stop-color="#59174E"/>
</linearGradient>
<linearGradient id="paint3_linear_39_2" x1="17.25" y1="57.87" x2="111.31" y2="57.87" gradientUnits="userSpaceOnUse">
<stop stop-color="#E89549"/>
<stop offset="0.9" stop-color="#9D318B"/>
</linearGradient>
<clipPath id="clip0_39_2">
<rect width="118.21" height="118.2" fill="white"/>
</clipPath>
</defs>
</svg>
