<svg width="119" height="119" viewBox="0 0 119 119" fill="none" xmlns="http://www.w3.org/2000/svg">
<g clip-path="url(#clip0_39_16)">
<path d="M57.86 118.2C89.8152 118.2 115.72 92.2952 115.72 60.34C115.72 28.3848 89.8152 2.48 57.86 2.48C25.9048 2.48 0 28.3848 0 60.34C0 92.2952 25.9048 118.2 57.86 118.2Z" fill="#A45E2F"/>
<path d="M60.34 115.72C92.2952 115.72 118.2 89.8152 118.2 57.86C118.2 25.9048 92.2952 0 60.34 0C28.3848 0 2.48001 25.9048 2.48001 57.86C2.48001 89.8152 28.3848 115.72 60.34 115.72Z" fill="#E18247"/>
<path d="M60.34 100.98C84.1545 100.98 103.46 81.6745 103.46 57.86C103.46 34.0455 84.1545 14.74 60.34 14.74C36.5255 14.74 17.22 34.0455 17.22 57.86C17.22 81.6745 36.5255 100.98 60.34 100.98Z" fill="#7F4820"/>
<path d="M60.34 100.07C83.6519 100.07 102.55 81.1719 102.55 57.86C102.55 34.5481 83.6519 15.65 60.34 15.65C37.0281 15.65 18.13 34.5481 18.13 57.86C18.13 81.1719 37.0281 100.07 60.34 100.07Z" fill="#E7924A"/>
<path d="M59 51L32.91 36C32.6941 35.8754 32.4492 35.8097 32.1999 35.8098C31.9507 35.8098 31.7058 35.8754 31.4899 36.0001C31.274 36.1247 31.0948 36.304 30.9702 36.5199C30.8455 36.7358 30.78 36.9807 30.78 37.23V76.94C30.78 77.3175 30.9293 77.6798 31.1953 77.9476C31.4613 78.2155 31.8225 78.3674 32.2 78.37H36.79C36.9778 78.37 37.1637 78.333 37.3372 78.2611C37.5107 78.1893 37.6684 78.084 37.8012 77.9512C37.9339 77.8184 38.0393 77.6607 38.1111 77.4872C38.183 77.3137 38.22 77.1278 38.22 76.94V50.06C38.222 49.8104 38.2892 49.5657 38.4151 49.3502C38.5409 49.1347 38.721 48.9558 38.9374 48.8315C39.1537 48.7071 39.3989 48.6415 39.6485 48.6413C39.8981 48.641 40.1434 48.7061 40.36 48.83L50 54.37C50.2181 54.4953 50.3994 54.6759 50.5254 54.8936C50.6514 55.1113 50.7177 55.3584 50.7177 55.61C50.7177 55.8616 50.6514 56.1087 50.5254 56.3264C50.3994 56.5441 50.2181 56.7247 50 56.85L43.16 60.71C42.9347 60.8399 42.7487 61.0285 42.622 61.2556C42.4952 61.4828 42.4323 61.74 42.44 62V82.35C42.4419 82.5989 42.5084 82.843 42.6328 83.0586C42.7572 83.2742 42.9354 83.4538 43.15 83.58L59.45 93.22C59.6751 93.3548 59.9326 93.426 60.195 93.426C60.4574 93.426 60.7149 93.3548 60.94 93.22L76.25 83.58C76.4543 83.4508 76.6227 83.2722 76.7398 83.0607C76.8569 82.8492 76.9188 82.6117 76.92 82.37V79.67C76.9178 79.4186 76.8502 79.1722 76.724 78.9548C76.5978 78.7374 76.4172 78.5565 76.2 78.43L63.48 71.11C63.1505 70.9247 62.7613 70.8764 62.3964 70.9755C62.0316 71.0747 61.7204 71.3134 61.53 71.64L59.24 75.64C59.1471 75.8021 59.0872 75.981 59.0636 76.1663C59.04 76.3516 59.0532 76.5398 59.1024 76.72C59.1516 76.9002 59.2359 77.0689 59.3505 77.2165C59.4651 77.3641 59.6076 77.4876 59.77 77.58L64 80C64.2112 80.1272 64.3859 80.3068 64.5072 80.5215C64.6285 80.7361 64.6923 80.9785 64.6923 81.225C64.6923 81.4715 64.6285 81.7139 64.5072 81.9285C64.3859 82.1432 64.2112 82.3228 64 82.45L60.77 84.45C60.5464 84.5891 60.2883 84.6629 60.025 84.6629C59.7617 84.6629 59.5036 84.5891 59.28 84.45L50.54 79.28C50.3261 79.1565 50.1486 78.9786 50.0257 78.7643C49.9027 78.55 49.8387 78.307 49.84 78.06V66.3C49.8385 66.0465 49.9043 65.7972 50.0308 65.5776C50.1573 65.3579 50.34 65.1758 50.56 65.05L59 60.32C59.2165 60.1973 59.4611 60.1328 59.71 60.1328C59.9589 60.1328 60.2035 60.1973 60.42 60.32L68.85 65.16C69.0679 65.2858 69.249 65.4665 69.3753 65.684C69.5016 65.9016 69.5688 66.1484 69.57 66.4V68.92C69.57 69.1073 69.6071 69.2928 69.679 69.4657C69.751 69.6387 69.8565 69.7957 69.9894 69.9276C70.1224 70.0596 70.2801 70.164 70.4535 70.2348C70.627 70.3056 70.8127 70.3413 71 70.34H75.59C75.9641 70.3348 76.3212 70.1832 76.5848 69.9177C76.8484 69.6523 76.9974 69.2941 77 68.92V62.09C76.9988 61.8384 76.9316 61.5916 76.8053 61.374C76.679 61.1565 76.4979 60.9758 76.28 60.85L69.4 56.85C69.1817 56.7261 69.0001 56.5465 68.8737 56.3296C68.7474 56.1126 68.6808 55.8661 68.6808 55.615C68.6808 55.3639 68.7474 55.1174 68.8737 54.9004C69.0001 54.6835 69.1817 54.5039 69.4 54.38L79.21 48.83C79.4264 48.7074 79.6711 48.6438 79.9198 48.6455C80.1684 48.6472 80.4123 48.7142 80.6269 48.8397C80.8416 48.9653 81.0195 49.145 81.1429 49.3609C81.2663 49.5768 81.3308 49.8213 81.33 50.07V77.06C81.33 77.4393 81.4807 77.803 81.7488 78.0712C82.017 78.3393 82.3807 78.49 82.76 78.49H87.35C87.7293 78.49 88.093 78.3393 88.3612 78.0712C88.6293 77.803 88.78 77.4393 88.78 77.06V37.36C88.7788 37.111 88.7126 36.8667 88.588 36.6512C88.4634 36.4356 88.2846 36.2564 88.0695 36.1311C87.8543 36.0059 87.6102 35.9389 87.3612 35.937C87.1123 35.935 86.8671 35.9981 86.65 36.12L60.42 51C60.2048 51.1266 59.9597 51.1934 59.71 51.1934C59.4603 51.1934 59.2152 51.1266 59 51Z" fill="white"/>
<path d="M59.61 22.1C58.489 22.0987 57.3787 22.3184 56.3426 22.7464C55.3066 23.1745 54.3651 23.8026 53.5719 24.5948C52.7788 25.3871 52.1496 26.3278 51.7203 27.3634C51.291 28.399 51.07 29.509 51.07 30.63H68.14C68.14 28.3677 67.2413 26.1981 65.6416 24.5984C64.0419 22.9987 61.8723 22.1 59.61 22.1Z" fill="white"/>
<path d="M71.81 31.36H47.4C47.2064 31.36 47.0207 31.2831 46.8838 31.1462C46.7469 31.0093 46.67 30.8236 46.67 30.63C46.67 30.4364 46.7469 30.2507 46.8838 30.1138C47.0207 29.9769 47.2064 29.9 47.4 29.9H71.81C72.0036 29.9 72.1893 29.9769 72.3262 30.1138C72.4631 30.2507 72.54 30.4364 72.54 30.63C72.54 30.8236 72.4631 31.0093 72.3262 31.1462C72.1893 31.2831 72.0036 31.36 71.81 31.36Z" fill="white"/>
</g>
<defs>
<clipPath id="clip0_39_16">
<rect width="118.21" height="118.2" fill="white"/>
</clipPath>
</defs>
</svg>
