<svg width="119" height="119" viewBox="0 0 119 119" fill="none" xmlns="http://www.w3.org/2000/svg">
<g clip-path="url(#clip0_39_8)">
<path d="M57.86 118.2C89.8152 118.2 115.72 92.2952 115.72 60.34C115.72 28.3848 89.8152 2.48 57.86 2.48C25.9048 2.48 0 28.3848 0 60.34C0 92.2952 25.9048 118.2 57.86 118.2Z" fill="#642869"/>
<path d="M60.34 115.72C92.2952 115.72 118.2 89.8152 118.2 57.86C118.2 25.9048 92.2952 0 60.34 0C28.3848 0 2.48001 25.9048 2.48001 57.86C2.48001 89.8152 28.3848 115.72 60.34 115.72Z" fill="#85338C"/>
<path d="M60.34 100.98C84.1545 100.98 103.46 81.6745 103.46 57.86C103.46 34.0455 84.1545 14.74 60.34 14.74C36.5255 14.74 17.22 34.0455 17.22 57.86C17.22 81.6745 36.5255 100.98 60.34 100.98Z" fill="#5C2262"/>
<path d="M60.34 100.07C83.6519 100.07 102.55 81.1719 102.55 57.86C102.55 34.5481 83.6519 15.65 60.34 15.65C37.0281 15.65 18.13 34.5481 18.13 57.86C18.13 81.1719 37.0281 100.07 60.34 100.07Z" fill="#9D318B"/>
<path d="M60.73 40.88C61.8515 40.88 62.962 40.6591 63.9981 40.2299C65.0342 39.8008 65.9757 39.1717 66.7687 38.3787C67.5617 37.5857 68.1907 36.6442 68.6199 35.6081C69.0491 34.572 69.27 33.4615 69.27 32.34H52.2C52.1987 33.461 52.4183 34.5713 52.8464 35.6074C53.2745 36.6434 53.9026 37.5849 54.6948 38.3781C55.487 39.1712 56.4278 39.8004 57.4634 40.2297C58.4989 40.659 59.609 40.88 60.73 40.88Z" fill="white"/>
<path d="M61.47 60.13L87.41 74.65C87.6264 74.7726 87.8711 74.8362 88.1198 74.8345C88.3684 74.8328 88.6123 74.7658 88.8269 74.6403C89.0416 74.5147 89.2195 74.335 89.3429 74.1191C89.4663 73.9032 89.5308 73.6587 89.53 73.41V37.41C89.5288 37.161 89.4626 36.9167 89.338 36.7012C89.2134 36.4856 89.0346 36.3064 88.8195 36.1811C88.6043 36.0559 88.3602 35.9889 88.1112 35.987C87.8623 35.985 87.6171 36.0481 87.4 36.17L82.81 38.76C82.5921 38.8858 82.411 39.0665 82.2847 39.284C82.1584 39.5016 82.0912 39.7484 82.09 40V60.71C82.0937 60.9575 82.0331 61.2017 81.9142 61.4188C81.7952 61.6359 81.6219 61.8184 81.4112 61.9484C81.2006 62.0784 80.9598 62.1515 80.7124 62.1605C80.4651 62.1696 80.2196 62.1143 80 62L33.65 36C33.4325 35.8802 33.1874 35.819 32.9391 35.8227C32.6908 35.8263 32.4476 35.8945 32.2337 36.0207C32.0197 36.1468 31.8423 36.3265 31.7189 36.5421C31.5956 36.7577 31.5304 37.0016 31.53 37.25V76.94C31.5299 77.1312 31.5682 77.3205 31.6425 77.4966C31.7169 77.6728 31.8258 77.8322 31.9629 77.9656C32.0999 78.0989 32.2623 78.2034 32.4405 78.2729C32.6186 78.3423 32.8089 78.3754 33 78.37H37.59C37.9658 78.3647 38.3244 78.2118 38.5883 77.9442C38.8521 77.6766 39 77.3158 39 76.94V50C38.9995 49.7502 39.0644 49.5046 39.1883 49.2877C39.3122 49.0708 39.4908 48.8901 39.7062 48.7636C39.9217 48.6372 40.1665 48.5694 40.4163 48.567C40.6661 48.5646 40.9122 48.6277 41.13 48.75L51 54.24C51.2205 54.3646 51.404 54.5455 51.5316 54.7643C51.6593 54.983 51.7265 55.2317 51.7265 55.485C51.7265 55.7383 51.6593 55.987 51.5316 56.2057C51.404 56.4245 51.2205 56.6054 51 56.73L44 60.73C43.7621 60.8468 43.5612 61.0273 43.42 61.2516C43.2787 61.4759 43.2026 61.735 43.2 62V82.4C43.1987 82.647 43.2627 82.89 43.3857 83.1043C43.5086 83.3186 43.6861 83.4965 43.9 83.62L60.21 93.27C60.4332 93.405 60.6891 93.4764 60.95 93.4764C61.2109 93.4764 61.4668 93.405 61.69 93.27L76.27 84C76.4743 83.8708 76.6427 83.6922 76.7598 83.4807C76.8769 83.2692 76.9389 83.0317 76.94 82.79V79.25C76.9395 78.9969 76.8728 78.7484 76.7465 78.5291C76.6202 78.3098 76.4387 78.1274 76.22 78L64.22 71.1C64.0551 70.9989 63.8714 70.9324 63.68 70.9044C63.4886 70.8764 63.2935 70.8875 63.1066 70.937C62.9196 70.9866 62.7447 71.0735 62.5923 71.1926C62.4399 71.3118 62.3132 71.4605 62.22 71.63L59.93 75.63C59.8275 75.7945 59.7598 75.9783 59.731 76.17C59.7022 76.3617 59.713 76.5572 59.7626 76.7446C59.8123 76.9319 59.8998 77.1072 60.0197 77.2594C60.1396 77.4117 60.2895 77.5378 60.46 77.63L64.75 80C64.9613 80.1259 65.1364 80.3045 65.2579 80.5184C65.3795 80.7322 65.4434 80.974 65.4434 81.22C65.4434 81.466 65.3795 81.7078 65.2579 81.9216C65.1364 82.1355 64.9613 82.3141 64.75 82.44L61.52 84.44C61.2949 84.5748 61.0374 84.646 60.775 84.646C60.5126 84.646 60.2551 84.5748 60.03 84.44L51.29 79.27C51.0753 79.1449 50.8974 78.9652 50.7745 78.7492C50.6516 78.5332 50.5879 78.2885 50.59 78.04V66.3C50.5905 66.0469 50.6572 65.7984 50.7835 65.5791C50.9098 65.3598 51.0913 65.1774 51.31 65.05L60.02 60.13C60.2387 59.9976 60.4894 59.9277 60.745 59.9277C61.0006 59.9277 61.2513 59.9976 61.47 60.13Z" fill="white"/>
<path d="M72.94 33.08H48.53C48.4263 33.0921 48.3212 33.0822 48.2216 33.0507C48.122 33.0193 48.0302 32.9672 47.9522 32.8978C47.8742 32.8284 47.8117 32.7432 47.769 32.6479C47.7262 32.5527 47.7041 32.4494 47.7041 32.345C47.7041 32.2406 47.7262 32.1373 47.769 32.0421C47.8117 31.9468 47.8742 31.8616 47.9522 31.7922C48.0302 31.7228 48.122 31.6707 48.2216 31.6393C48.3212 31.6079 48.4263 31.5979 48.53 31.61H72.94C73.1202 31.6311 73.2863 31.7175 73.4069 31.853C73.5275 31.9885 73.5941 32.1636 73.5941 32.345C73.5941 32.5264 73.5275 32.7015 73.4069 32.837C73.2863 32.9725 73.1202 33.059 72.94 33.08Z" fill="white"/>
</g>
<defs>
<clipPath id="clip0_39_8">
<rect width="118.2" height="118.2" fill="white"/>
</clipPath>
</defs>
</svg>
